<?xml version="1.0" encoding="UTF-8"?><svg id="Layer_2" xmlns="http://www.w3.org/2000/svg" viewBox="0 0 460.694 115.219"><g id="Layer_1-2"><path d="M376.539,24.266l.1-3.697,3.693-.19" fill="none" stroke="#fff" stroke-miterlimit="10"/><path d="M381.38,67.765c-4.359-10.079-6.371-26.524-5.808-47.647l1.096-.05c-.56,20.979,1.328,37.354,5.63,47.299l-.918.397Z" fill="#fff"/><path d="M418.623,115.219l-2.159-1.372c-18.053-11.473-30.356-27.476-35.58-46.279-3.781-13.616-4.672-31.039-4.345-43.302l.1-3.697,3.693-.19c16.204-.836,27.332-5.804,35.021-15.632l2.848-3.642,3.194,3.342c.926.969,1.827,1.96,2.728,2.952,1.876,2.065,3.648,4.016,5.616,5.723,7.076,6.141,16.204,6.648,26.773,7.236l4.122.229.047,3.736c.081,6.459-.05,28.821-5.12,45.367-5.513,17.984-17.216,32.837-34.786,44.145l-2.151,1.384ZM384.484,28.097c-.034,10.999.998,26.129,4.108,37.33,4.476,16.113,14.828,29.984,30.005,40.253,14.741-10.06,24.597-22.945,29.314-38.335,3.404-11.109,4.685-26.88,4.777-39.196-9.948-.622-19.982-1.859-28.194-8.985-2.171-1.883-4.072-3.942-5.901-5.954-8.259,8.618-19.485,13.515-34.109,14.887Z" fill="#4d7cff"/><path d="M4.36,78.666v-46.24h8.72v46.24H4.36Z" fill="#4d7cff"/><path d="M21.534,78.666v-32.765h8.191v3.567h1.189c.572-1.101,1.519-2.058,2.84-2.874,1.321-.814,3.06-1.222,5.219-1.222,2.333,0,4.205.452,5.615,1.354,1.409.903,2.487,2.081,3.237,3.534h1.189c.749-1.409,1.805-2.576,3.171-3.501,1.364-.925,3.303-1.387,5.813-1.387,2.025,0,3.864.429,5.516,1.288s2.973,2.158,3.963,3.897c.991,1.74,1.486,3.93,1.486,6.573v21.535h-8.323v-20.94c0-1.805-.462-3.159-1.387-4.062-.925-.902-2.224-1.354-3.897-1.354-1.894,0-3.358.606-4.393,1.816-1.035,1.212-1.552,2.939-1.552,5.186v19.355h-8.323v-20.94c0-1.805-.462-3.159-1.387-4.062-.925-.902-2.225-1.354-3.897-1.354-1.894,0-3.359.606-4.393,1.816-1.035,1.212-1.552,2.939-1.552,5.186v19.355h-8.323Z" fill="#4d7cff"/><path d="M87.591,79.591c-2.334,0-4.426-.408-6.275-1.222s-3.314-2.003-4.393-3.567c-1.08-1.563-1.618-3.468-1.618-5.714s.539-4.129,1.618-5.648c1.079-1.52,2.577-2.664,4.492-3.435,1.916-.77,4.106-1.156,6.573-1.156h8.984v-1.85c0-1.541-.485-2.807-1.454-3.798-.969-.991-2.51-1.486-4.624-1.486-2.07,0-3.611.474-4.624,1.42-1.013.947-1.674,2.169-1.981,3.666l-7.663-2.576c.528-1.673,1.375-3.204,2.543-4.591,1.167-1.387,2.73-2.51,4.69-3.369,1.959-.859,4.349-1.288,7.167-1.288,4.315,0,7.729,1.08,10.239,3.237,2.51,2.158,3.766,5.285,3.766,9.38v12.221c0,1.321.616,1.981,1.85,1.981h2.642v6.87h-5.549c-1.63,0-2.973-.396-4.029-1.189-1.057-.793-1.585-1.85-1.585-3.171v-.066h-1.255c-.176.528-.573,1.222-1.189,2.081-.617.859-1.585,1.619-2.906,2.279-1.321.661-3.127.991-5.417.991ZM89.044,72.853c2.334,0,4.238-.649,5.714-1.949,1.475-1.298,2.213-3.027,2.213-5.186v-.661h-8.39c-1.542,0-2.752.331-3.633.991-.882.661-1.321,1.585-1.321,2.774s.462,2.158,1.387,2.907c.925.75,2.268,1.123,4.029,1.123Z" fill="#4d7cff"/><path d="M112.825,62.416v-1.057c0-3.435.682-6.375,2.048-8.819,1.365-2.444,3.181-4.315,5.45-5.615,2.268-1.298,4.745-1.949,7.432-1.949,2.994,0,5.262.528,6.804,1.585,1.541,1.057,2.664,2.158,3.369,3.303h1.189v-3.963h8.191v38.578c0,2.246-.66,4.04-1.981,5.384-1.321,1.343-3.083,2.015-5.285,2.015h-21.931v-7.266h19.024c1.232,0,1.85-.661,1.85-1.982v-8.521h-1.189c-.44.705-1.057,1.42-1.85,2.147-.792.727-1.85,1.333-3.17,1.816-1.321.485-2.996.727-5.021.727-2.687,0-5.164-.649-7.432-1.949-2.269-1.299-4.085-3.171-5.45-5.615-1.366-2.444-2.048-5.383-2.048-8.818ZM130.132,71.532c2.554,0,4.69-.814,6.408-2.444,1.717-1.629,2.576-3.919,2.576-6.87v-.661c0-2.994-.849-5.295-2.543-6.903-1.696-1.607-3.842-2.411-6.44-2.411-2.555,0-4.69.804-6.408,2.411-1.717,1.608-2.576,3.909-2.576,6.903v.661c0,2.951.859,5.241,2.576,6.87,1.718,1.629,3.853,2.444,6.408,2.444Z" fill="#4d7cff"/><path d="M170.955,79.591c-3.26,0-6.133-.693-8.621-2.081-2.489-1.387-4.426-3.346-5.813-5.879-1.387-2.532-2.081-5.516-2.081-8.951v-.793c0-3.435.682-6.418,2.048-8.951,1.365-2.532,3.28-4.492,5.747-5.879,2.466-1.387,5.328-2.081,8.587-2.081,3.214,0,6.011.716,8.389,2.147,2.378,1.432,4.228,3.413,5.549,5.945,1.321,2.533,1.982,5.472,1.982,8.818v2.841h-23.847c.087,2.246.925,4.074,2.51,5.482,1.585,1.41,3.522,2.114,5.813,2.114,2.333,0,4.051-.506,5.152-1.52,1.1-1.013,1.938-2.136,2.51-3.369l6.804,3.567c-.617,1.146-1.509,2.389-2.675,3.732-1.167,1.344-2.72,2.489-4.657,3.435-1.938.947-4.404,1.42-7.398,1.42ZM162.961,58.519h15.325c-.176-1.893-.936-3.413-2.279-4.558-1.344-1.145-3.094-1.717-5.251-1.717-2.246,0-4.03.573-5.351,1.717-1.321,1.146-2.137,2.665-2.444,4.558Z" fill="#4d7cff"/><path d="M204.049,78.666v-38.313h-13.476v-7.927h35.671v7.927h-13.476v38.313h-8.72Z" fill="#4d7cff"/><path d="M227.038,78.666v-32.765h8.191v3.699h1.189c.484-1.321,1.288-2.289,2.411-2.906,1.123-.616,2.433-.925,3.93-.925h3.963v7.398h-4.095c-2.114,0-3.854.562-5.219,1.684-1.366,1.123-2.048,2.852-2.048,5.186v18.628h-8.323Z" fill="#4d7cff"/><path d="M264.756,79.194c-2.555,0-4.789-.583-6.705-1.75-1.916-1.166-3.402-2.785-4.459-4.855-1.057-2.07-1.585-4.448-1.585-7.134v-19.553h8.323v18.893c0,2.467.605,4.316,1.816,5.549,1.211,1.233,2.94,1.85,5.186,1.85,2.554,0,4.535-.847,5.945-2.543,1.409-1.694,2.114-4.062,2.114-7.101v-16.646h8.323v32.765h-8.191v-4.294h-1.189c-.529,1.102-1.52,2.18-2.973,3.237-1.454,1.057-3.656,1.585-6.606,1.585Z" fill="#4d7cff"/><path d="M304.588,78.666c-2.158,0-3.909-.671-5.251-2.015-1.344-1.343-2.015-3.138-2.015-5.384v-18.496h-8.191v-6.87h8.191v-10.173h8.323v10.173h8.984v6.87h-8.984v17.043c0,1.321.616,1.981,1.85,1.981h6.341v6.87h-9.248Z" fill="#4d7cff"/><path d="M321.235,78.666v-46.24h8.323v17.505h1.189c.352-.704.902-1.409,1.651-2.114.749-.704,1.75-1.288,3.006-1.75,1.255-.462,2.851-.693,4.79-.693,2.553,0,4.789.584,6.704,1.75,1.916,1.167,3.402,2.774,4.459,4.822,1.058,2.048,1.586,4.437,1.586,7.167v19.553h-8.323v-18.893c0-2.466-.606-4.315-1.817-5.549-1.211-1.232-2.939-1.85-5.186-1.85-2.554,0-4.536.849-5.945,2.543-1.41,1.696-2.114,4.062-2.114,7.101v16.646h-8.323Z" fill="#4d7cff"/><polygon points="403.082 32.076 403.082 39.767 414.103 39.767 414.103 74.596 422.67 74.596 422.67 39.767 434.69 39.767 434.69 32.076 403.082 32.076" fill="#4d7cff"/><polygon points="423.67 74.316 414.103 74.316 414.103 74.323 403.082 74.323 403.082 82.091 434.69 82.091 434.69 74.323 423.67 74.323 423.67 74.316" fill="#4d7cff"/><g id="Highlights"><path d="M418.898,105.903l-.766-.54c14.641-9.991,24.621-22.895,29.302-38.164,3.639-11.872,5.023-27.958,5.107-39.054l1,.008c-.084,11.166-1.481,27.364-5.15,39.339-4.749,15.492-14.661,28.289-29.493,38.411Z" fill="#fff"/><path d="M376.526,24.769l-1.002-.006.164-4.521,4.618-.364c16.048-.828,27.06-5.735,34.652-15.441l.308-.394.788.616-.309.394c-7.784,9.951-19.029,14.979-35.389,15.824l-3.865.199.034,3.692Z" fill="#fff"/></g><path d="M429.869,50.516l-2.756-9.873h-17.449l-2.832,9.873h-9.337L412.304.5h13.165l14.809,50.016h-10.408ZM418.503,9.684l-6.582,23.267h13.087l-6.505-23.267Z" fill="#4d7cff"/><polygon points="398.016 50.516 396.973 50.516 411.931 0 425.324 0 425.617 1 412.677 1 398.016 50.516" fill="#fff"/><polygon points="424.901 32.576 412.028 32.576 412.311 31.576 424.624 31.576 424.901 32.576" fill="#fff"/><line x1="403.082" y1="74.323" x2="403.082" y2="82.091" fill="none" stroke="#fff" stroke-miterlimit="10"/><rect x="413.603" y="40.642" width="1" height="41.449" fill="#fff"/><polygon points="429.017 50.516 417.872 10.607 418.392 8.75 430.025 50.516 429.017 50.516" fill="#fff"/></g></svg>