<?xml version="1.0" encoding="UTF-8"?>
<svg id="Layer_2" data-name="Layer 2" xmlns="http://www.w3.org/2000/svg" viewBox="0 0 366.11 111.23">
  <defs>
    <style>
      .cls-1 {
        fill: #4d7cff;
      }

      .cls-2 {
        fill: none;
        stroke: #4d7cff;
        stroke-miterlimit: 10;
        stroke-width: 5.5px;
      }
    </style>
  </defs>
  <g id="Layer_1" data-name="Layer 1">
    <path class="cls-2" d="M40.77,4.71c2.86,2.99,5.48,6.21,8.61,8.93,8.21,7.12,18.63,7.62,29.56,8.23.17,13.26-1.05,31.44-4.95,44.15-5.53,18.04-17.43,31.85-33.13,41.95-16.35-10.39-28.63-25.09-33.87-43.97-3.41-12.27-4.54-29.42-4.2-42.12,15.38-.79,28.69-5.3,37.97-17.16Z"/>
    <g>
      <polygon class="cls-1" points="25.05 31.58 25.05 39.27 36.07 39.27 36.07 74.1 44.64 74.1 44.64 39.27 56.66 39.27 56.66 31.58 25.05 31.58"/>
      <polygon class="cls-1" points="45.64 73.82 36.07 73.82 36.07 73.82 25.05 73.82 25.05 81.59 56.66 81.59 56.66 73.82 45.64 73.82 45.64 73.82"/>
    </g>
    <path class="cls-1" d="M51.84,50.02l-2.76-9.87h-17.45l-2.83,9.87h-9.34L34.28,0h13.16l14.81,50.02h-10.41ZM40.47,9.18l-6.58,23.27h13.09l-6.51-23.27Z"/>
    <g>
      <path class="cls-1" d="M93.37,59.27v-4.06h16.67v4.06h-5.81v18.22h5.81v4.1h-16.67v-4.1h5.81v-18.22h-5.81Z"/>
      <path class="cls-1" d="M130.34,81.59v-13.97c0-.51-.01-.96-.04-1.34s-.08-.7-.16-.96c-.08-.26-.2-.45-.35-.58s-.37-.19-.64-.19c-.42,0-.83.28-1.23.85-.4.56-.86,1.53-1.37,2.89v13.3h-4.22v-13.97c0-.51-.01-.96-.04-1.34-.03-.38-.08-.7-.16-.96-.08-.26-.2-.45-.36-.58-.16-.13-.38-.19-.65-.19-.35,0-.74.28-1.17.85-.43.56-.91,1.53-1.43,2.89v13.3h-4.26v-20.5h3.65l.08,2.99c.3-.61.59-1.12.89-1.55s.61-.78.95-1.06c.34-.28.7-.47,1.08-.6s.82-.18,1.3-.18c1.14,0,2.01.3,2.61.9s.94,1.43,1.02,2.49c.32-.61.64-1.12.96-1.55s.65-.78.99-1.06c.34-.28.71-.47,1.11-.6.4-.12.84-.18,1.32-.18,1.49,0,2.6.52,3.31,1.56.71,1.04,1.07,2.59,1.07,4.63v14.71h-4.26Z"/>
      <path class="cls-1" d="M151.45,81.59l-.12-2.68c-.43.46-.88.88-1.35,1.26-.47.38-.99.72-1.55,1s-1.18.5-1.85.66-1.4.23-2.19.23c-1.05,0-1.97-.15-2.77-.46s-1.46-.74-2-1.29c-.54-.55-.95-1.22-1.22-2s-.41-1.64-.41-2.58.21-1.86.62-2.68c.41-.82,1.04-1.53,1.88-2.12.84-.59,1.89-1.06,3.15-1.39,1.26-.34,2.73-.5,4.43-.5h2.68v-1.23c0-.52-.07-1-.22-1.42s-.39-.78-.72-1.08c-.33-.3-.76-.52-1.28-.69-.52-.16-1.17-.24-1.94-.24-1.21,0-2.41.14-3.58.41-1.18.28-2.32.66-3.42,1.16v-3.94c.98-.39,2.12-.71,3.4-.97,1.28-.26,2.62-.38,4.01-.38,1.52,0,2.83.14,3.92.43,1.09.29,1.99.72,2.69,1.3.71.58,1.23,1.3,1.56,2.17.34.87.5,1.88.5,3.04v14.01h-4.22ZM150.75,72.53h-3.01c-.83,0-1.54.08-2.12.24-.58.16-1.05.38-1.41.67-.36.28-.63.61-.8.98-.17.37-.25.76-.25,1.18,0,.83.27,1.47.81,1.91.54.44,1.27.66,2.2.66.69,0,1.4-.25,2.14-.75.74-.5,1.55-1.21,2.44-2.14v-2.74Z"/>
      <path class="cls-1" d="M176.7,64.68c.38.47.64.97.8,1.48.15.52.23,1.05.23,1.58,0,1.14-.2,2.15-.6,3.03s-.96,1.61-1.67,2.2c-.72.59-1.58,1.04-2.58,1.34-1,.3-2.11.45-3.32.45-.71,0-1.37-.07-1.98-.21-.61-.14-1.06-.31-1.37-.49-.23.23-.42.48-.59.76-.16.28-.24.59-.24.94,0,.22.05.43.16.65.11.22.27.41.47.58.21.17.46.31.75.41.29.11.62.17.98.18l4.86.18c1.09.03,2.08.17,2.96.41.88.25,1.64.6,2.27,1.06.63.46,1.12,1.01,1.46,1.67.34.65.51,1.4.51,2.23,0,.96-.22,1.86-.65,2.7-.43.85-1.08,1.58-1.95,2.21-.87.63-1.95,1.12-3.24,1.48s-2.79.54-4.5.54-3.08-.13-4.27-.39c-1.19-.26-2.17-.63-2.93-1.1-.76-.47-1.32-1.03-1.69-1.69-.36-.65-.54-1.37-.54-2.15,0-.47.06-.91.18-1.31s.3-.79.54-1.16c.24-.37.54-.73.91-1.08.36-.35.79-.7,1.29-1.05-.66-.38-1.16-.86-1.5-1.45-.34-.59-.51-1.22-.51-1.9,0-.46.06-.88.18-1.28s.28-.78.47-1.14c.19-.36.42-.71.68-1.05.26-.34.52-.67.81-.99-.5-.5-.91-1.1-1.24-1.81-.33-.71-.49-1.59-.49-2.65,0-1.14.2-2.16.62-3.06.41-.89.98-1.65,1.71-2.26.73-.61,1.59-1.08,2.59-1.39,1-.32,2.1-.47,3.28-.47.61,0,1.19.03,1.75.09.56.06,1.07.16,1.52.31h7.1v3.59h-3.23ZM165.1,84.32c0,.79.4,1.38,1.2,1.76.8.38,1.93.57,3.38.57.93,0,1.71-.09,2.35-.26.64-.17,1.16-.4,1.56-.69.4-.28.69-.61.87-.99.17-.38.26-.77.26-1.17,0-.36-.08-.67-.25-.92-.17-.25-.4-.46-.71-.63-.3-.17-.66-.3-1.07-.38-.41-.09-.86-.14-1.36-.17l-4.34-.08c-.39.27-.71.52-.96.77-.25.24-.44.48-.59.72-.14.24-.24.47-.28.72s-.07.5-.07.77ZM165.92,67.87c0,1.09.32,1.95.96,2.59.64.64,1.53.96,2.67.96.61,0,1.13-.1,1.58-.3.45-.2.82-.47,1.12-.81.3-.34.52-.73.67-1.17.15-.44.22-.91.22-1.39,0-1.14-.32-2.03-.96-2.67-.64-.64-1.53-.96-2.67-.96-.61,0-1.13.1-1.58.3-.45.2-.82.47-1.12.82-.3.34-.52.74-.67,1.2-.15.46-.22.94-.22,1.43Z"/>
      <path class="cls-1" d="M201.91,69.77c0,.34,0,.77-.03,1.31-.02.54-.05,1.04-.09,1.51h-13.48c0,.9.14,1.69.41,2.38.28.69.67,1.26,1.17,1.73.5.46,1.11.82,1.82,1.06s1.49.36,2.35.36c1,0,2.06-.08,3.2-.23,1.14-.15,2.32-.41,3.54-.76v3.92c-.53.15-1.1.28-1.72.4s-1.25.23-1.9.32c-.65.09-1.3.16-1.96.21-.66.05-1.3.07-1.92.07-1.56,0-2.96-.22-4.2-.67-1.24-.44-2.29-1.1-3.15-1.97-.86-.87-1.52-1.94-1.98-3.22-.46-1.28-.69-2.76-.69-4.44s.23-3.19.69-4.55c.46-1.37,1.1-2.54,1.94-3.51s1.85-1.73,3.04-2.26c1.19-.53,2.52-.8,3.99-.8s2.74.23,3.85.68c1.12.45,2.05,1.08,2.8,1.89.75.81,1.33,1.77,1.72,2.89.39,1.12.58,2.34.58,3.67ZM196.9,69.06c.01-.81-.09-1.51-.3-2.11s-.51-1.09-.88-1.48-.8-.68-1.29-.87c-.49-.19-1.02-.28-1.58-.28-1.24,0-2.25.41-3.05,1.24s-1.26,1.99-1.41,3.5h8.52Z"/>
      <path class="cls-1" d="M217.87,59.35v22.24h-5.08v-22.24h-7.22v-4.14h19.53v4.14h-7.22Z"/>
      <path class="cls-1" d="M241.41,69.06c.03-.77-.01-1.42-.11-1.96s-.26-.98-.48-1.33c-.22-.35-.49-.61-.82-.77-.32-.16-.69-.24-1.11-.24-.73,0-1.48.3-2.25.9s-1.62,1.58-2.55,2.96v12.98h-5.04v-20.5h4.46l.18,2.99c.34-.52.72-1,1.14-1.41s.89-.78,1.41-1.08c.52-.3,1.09-.53,1.73-.7.63-.16,1.33-.24,2.08-.24,1.04,0,1.95.18,2.75.53.8.36,1.47.88,2.02,1.58s.95,1.58,1.21,2.63c.26,1.06.37,2.28.33,3.66h-4.94Z"/>
      <path class="cls-1" d="M254.54,61.09v13.36c0,1.12.21,1.96.63,2.53s1.05.86,1.9.86,1.61-.34,2.37-1.02c.76-.68,1.56-1.6,2.41-2.75v-12.98h4.92v20.5h-4.26l-.12-3.03c-.43.52-.87,1-1.31,1.43s-.92.8-1.44,1.1c-.52.3-1.08.54-1.69.71-.61.17-1.29.25-2.03.25-1.05,0-1.97-.17-2.75-.51-.79-.34-1.44-.83-1.97-1.46-.52-.63-.92-1.39-1.18-2.27s-.39-1.87-.39-2.96v-13.76h4.92Z"/>
      <path class="cls-1" d="M288.46,81.39c-.89.2-1.78.36-2.68.48s-1.75.18-2.56.18c-1.35,0-2.51-.14-3.48-.42-.98-.28-1.78-.71-2.42-1.29-.64-.58-1.11-1.31-1.41-2.21-.3-.89-.45-1.96-.45-3.2v-10.01h-5.51v-3.83h5.51v-5.25l5.04-1.31v6.56h7.97v3.83h-7.97v9.65c0,1.17.27,2.06.81,2.65s1.44.9,2.7.9c.81,0,1.59-.07,2.36-.2.77-.13,1.47-.29,2.1-.46v3.94Z"/>
      <path class="cls-1" d="M306.09,81.59v-13.36c0-2.25-.83-3.37-2.5-3.37-.83,0-1.63.34-2.39,1.01s-1.56,1.59-2.41,2.74v12.98h-4.92v-28.52h4.92v7.02l-.24,3.71c.42-.5.84-.95,1.27-1.34.43-.4.89-.73,1.39-1,.5-.27,1.04-.47,1.61-.62.58-.14,1.22-.21,1.92-.21,1.05,0,1.96.17,2.74.51s1.43.83,1.96,1.45.92,1.38,1.18,2.26.39,1.87.39,2.96v13.76h-4.92Z"/>
      <path class="cls-1" d="M340.84,81.59l-1.45-5.21h-9.2l-1.49,5.21h-4.92l7.81-26.38h6.94l7.81,26.38h-5.49ZM334.85,60.06l-3.47,12.27h6.9l-3.43-12.27Z"/>
      <path class="cls-1" d="M349.44,59.27v-4.06h16.67v4.06h-5.81v18.22h5.81v4.1h-16.67v-4.1h5.81v-18.22h-5.81Z"/>
    </g>
  </g>
</svg>